<svg width="512" height="512" viewBox="0 0 512 512" xmlns="http://www.w3.org/2000/svg">
  <rect width="512" height="512" rx="108" ry="108" fill="#1e1e2e"/>
  <rect width="512" height="512" rx="108" ry="108" fill="url(#g)" opacity="0.3"/>
  <defs>
    <linearGradient id="g" x1="0%" y1="0%" x2="100%" y2="100%">
      <stop offset="0%" stop-color="#6B6EF4" stop-opacity="0.4"/>
      <stop offset="100%" stop-color="#1e1e2e" stop-opacity="0"/>
    </linearGradient>
  </defs>
  <g transform="translate(86,76) scale(1.1)">
    <ellipse cx="170" cy="210" rx="80" ry="55" fill="#6B6EF4"/>
    <ellipse cx="218" cy="178" rx="22" ry="26" fill="#6B6EF4"/>
    <circle cx="235" cy="148" r="36" fill="#6B6EF4"/>
    <polygon points="268,143 306,137 268,156" fill="#F4A826"/>
    <circle cx="248" cy="140" r="7" fill="white"/>
    <circle cx="250" cy="140" r="3.5" fill="#1e1e2e"/>
    <ellipse cx="152" cy="208" rx="44" ry="28" fill="#5558d4" opacity="0.75"/>
    <polygon points="96,196 68,178 82,228" fill="#5558d4"/>
    <path d="M88,252 Q115,242 142,252 Q169,262 196,252 Q223,242 252,252" fill="none" stroke="#6B6EF4" stroke-width="3" opacity="0.4"/>
  </g>
</svg>
